<?xml version="1.0" encoding="UTF-8" standalone="no"?>
<svg
   xmlns:dc="http://purl.org/dc/elements/1.1/"
   xmlns:cc="http://creativecommons.org/ns#"
   xmlns:rdf="http://www.w3.org/1999/02/22-rdf-syntax-ns#"
   xmlns:svg="http://www.w3.org/2000/svg"
   xmlns="http://www.w3.org/2000/svg"
   viewBox="0 0 126.0375 32.6875"
   height="32.6875"
   width="126.0375"
   xml:space="preserve"
   version="1.1"
   id="svg2"><metadata
     id="metadata8"><rdf:RDF><cc:Work
         rdf:about=""><dc:format>image/svg+xml</dc:format><dc:type
           rdf:resource="http://purl.org/dc/dcmitype/StillImage" /></cc:Work></rdf:RDF></metadata><defs
     id="defs6"><clipPath
       id="clipPath18"
       clipPathUnits="userSpaceOnUse"><path
         id="path20"
         d="m 0,0 1008,0 0,261.523 -1008,0 L 0,0 Z" /></clipPath></defs><g
     transform="matrix(1.25,0,0,-1.25,0,32.6875)"
     id="g10"><g
       transform="scale(0.1,0.1)"
       id="g12"><g
         id="g14"><g
           clip-path="url(#clipPath18)"
           id="g16"><path
             id="path22"
             style="fill:#a5a8aa;fill-opacity:1;fill-rule:nonzero;stroke:none"
             d="m 62.293,258.027 c -32.4219,0 -58.79691,-26.375 -58.79691,-58.797 l 0,-136.9292 C 3.49609,29.8672 29.8711,3.5 62.293,3.5 l 883.703,0 c 32.422,0 58.804,26.3672 58.804,58.8008 l 0,136.9292 c 0,32.422 -26.382,58.797 -58.804,58.797 l -883.703,0 z m 0,-258.03090625 C 27.9414,-0.00390625 0,27.9453 0,62.3008 L 0,199.23 c 0,34.356 27.9414,62.293 62.293,62.293 l 883.703,0 c 34.356,0 62.304,-27.937 62.304,-62.293 l 0,-136.9292 c 0,-34.3555 -27.948,-62.30470625 -62.304,-62.30470625 l -883.703,0" /><path
             id="path24"
             style="fill:#1b2837;fill-opacity:1;fill-rule:nonzero;stroke:none"
             d="m 1004.8,62.3008 0,136.9292 c 0,32.422 -26.382,58.797 -58.804,58.797 l -883.703,0 c -32.4219,0 -58.79691,-26.375 -58.79691,-58.797 l 0,-136.9292 C 3.49609,29.8672 29.8711,3.5 62.293,3.5 l 883.703,0 c 32.422,0 58.804,26.3672 58.804,58.8008" /><path
             id="path26"
             style="fill:#26b9eb;fill-opacity:1;fill-rule:nonzero;stroke:none"
             d="m 117.605,33.082 0,19.6094 c 0,6.9727 -4.269,13.1914 -10.746,15.9375 -24.2379,10.2813 -41.2027,34.3551 -41.2027,62.1331 0,37.027 30.1367,67.461 67.4607,67.461 37.324,0 67.461,-30.434 67.461,-67.461 0,-43.6878 -33.797,-84.9964 -82.973,-97.68 z m 15.512,196.606 c -54.7342,0 -98.9295,-44.629 -98.9295,-98.926 0,-54.3011 44.1953,-98.93 98.9295,-98.93 54.735,0 98.93,44.6289 98.93,98.93 0,54.297 -44.195,98.926 -98.93,98.926" /><path
             id="path28"
             style="fill:#ffffff;fill-opacity:1;fill-rule:nonzero;stroke:none"
             d="m 296.676,155.277 c -11.203,0 -16.805,-4.32 -16.805,-12.957 0,-7.523 3.961,-11.285 11.883,-11.285 3.039,0 6.32,0.598 9.844,1.801 3.519,1.195 7.078,2.961 10.679,5.277 l 0,15.008 c -5.437,1.442 -10.64,2.156 -15.601,2.156 z m 1.683,33.016 c 13.84,0 20.762,-5.965 20.762,-17.887 l 0,-42.492 c 0,-1.199 -0.601,-1.801 -1.797,-1.801 l -2.523,0 c -1.203,0 -1.844,0.602 -1.922,1.801 l -0.477,5.16 c -6.886,-5.519 -14.089,-8.285 -21.605,-8.285 -5.524,0 -9.906,1.582 -13.149,4.746 -3.242,3.16 -4.863,7.379 -4.863,12.66 0,5.84 1.985,10.446 5.945,13.805 3.958,3.359 9.422,5.039 16.387,5.039 2.559,0 5.356,-0.238 8.399,-0.719 3.039,-0.476 5.961,-1.16 8.761,-2.039 l 0,10.082 c 0,4.883 -1.16,8.387 -3.48,10.504 -2.324,2.121 -6.16,3.18 -11.524,3.18 -4.96,0 -10.199,-0.797 -15.722,-2.399 -0.883,-0.238 -1.582,-0.464 -2.098,-0.664 -0.523,-0.199 -0.941,-0.296 -1.262,-0.296 -0.961,0 -1.437,0.523 -1.437,1.562 l 0,1.918 c 0,1.203 0.516,1.996 1.555,2.402 3.043,1.203 6.304,2.121 9.781,2.758 3.484,0.641 6.902,0.965 10.269,0.965" /><path
             id="path30"
             style="fill:#ffffff;fill-opacity:1;fill-rule:nonzero;stroke:none"
             d="m 404.586,188.293 c 5.519,0 9.719,-1.543 12.605,-4.625 2.875,-3.082 4.317,-7.621 4.317,-13.625 l 0,-42.129 c 0,-1.199 -0.602,-1.801 -1.797,-1.801 l -3.242,0 c -1.203,0 -1.801,0.602 -1.801,1.801 l 0,39.25 c 0,5.281 -0.898,9.082 -2.699,11.406 -1.805,2.321 -4.742,3.477 -8.824,3.477 -7.68,0 -14.926,-2.52 -21.723,-7.559 0.238,-1.925 0.355,-3.804 0.355,-5.644 l 0,-40.93 c 0,-1.199 -0.601,-1.801 -1.804,-1.801 l -3.235,0 c -1.203,0 -1.804,0.602 -1.804,1.801 l 0,39.25 c 0,5.281 -0.899,9.082 -2.7,11.406 -1.8,2.321 -4.742,3.477 -8.824,3.477 -7.437,0 -14.562,-2.442 -21.359,-7.32 l 0,-46.813 c 0,-1.199 -0.606,-1.801 -1.805,-1.801 l -3.238,0 c -1.203,0 -1.805,0.602 -1.805,1.801 l 0,56.774 c 0,1.203 0.602,1.8 1.805,1.8 l 2.398,0 c 1.199,0 1.883,-0.597 2.039,-1.8 l 0.485,-4.801 c 3.597,2.644 7.363,4.703 11.277,6.183 3.922,1.481 7.809,2.223 11.645,2.223 7.519,0 12.566,-3.086 15.121,-9.246 3.843,3.039 7.867,5.344 12.066,6.902 4.203,1.563 8.387,2.344 12.547,2.344" /><path
             id="path32"
             style="fill:#ffffff;fill-opacity:1;fill-rule:nonzero;stroke:none"
             d="m 457.637,155.277 c -11.203,0 -16.801,-4.32 -16.801,-12.957 0,-7.523 3.957,-11.285 11.883,-11.285 3.039,0 6.316,0.598 9.84,1.801 3.523,1.195 7.082,2.961 10.687,5.277 l 0,15.008 c -5.445,1.442 -10.648,2.156 -15.609,2.156 z m 1.683,33.016 c 13.844,0 20.762,-5.965 20.762,-17.887 l 0,-42.492 c 0,-1.199 -0.598,-1.801 -1.797,-1.801 l -2.519,0 c -1.203,0 -1.844,0.602 -1.922,1.801 l -0.481,5.16 c -6.886,-5.519 -14.086,-8.285 -21.605,-8.285 -5.524,0 -9.903,1.582 -13.145,4.746 -3.242,3.16 -4.863,7.379 -4.863,12.66 0,5.84 1.98,10.446 5.941,13.805 3.965,3.359 9.422,5.039 16.387,5.039 2.559,0 5.36,-0.238 8.402,-0.719 3.04,-0.476 5.961,-1.16 8.766,-2.039 l 0,10.082 c 0,4.883 -1.168,8.387 -3.484,10.504 -2.321,2.121 -6.164,3.18 -11.528,3.18 -4.961,0 -10.199,-0.797 -15.718,-2.399 -0.879,-0.238 -1.582,-0.464 -2.102,-0.664 -0.523,-0.199 -0.941,-0.296 -1.262,-0.296 -0.961,0 -1.437,0.523 -1.437,1.562 l 0,1.918 c 0,1.203 0.515,1.996 1.562,2.402 3.036,1.203 6.297,2.121 9.782,2.758 3.48,0.641 6.898,0.965 10.261,0.965" /><path
             id="path34"
             style="fill:#ffffff;fill-opacity:1;fill-rule:nonzero;stroke:none"
             d="m 537.461,130.313 0,-2.399 c 0,-1.199 -0.598,-1.801 -1.797,-1.801 l -42.258,0 c -1.199,0 -1.801,0.602 -1.801,1.801 l 0,2.52 c 0,0.796 0.102,1.441 0.301,1.921 0.203,0.481 0.578,1.04 1.145,1.676 l 36.488,46.457 -34.93,0 c -1.203,0 -1.8,0.602 -1.8,1.801 l 0,2.399 c 0,1.203 0.597,1.8 1.8,1.8 l 40.809,0 c 1.203,0 1.797,-0.597 1.797,-1.8 l 0,-2.52 c 0,-0.641 -0.098,-1.238 -0.293,-1.801 -0.203,-0.562 -0.625,-1.203 -1.258,-1.918 l -36.617,-46.336 36.617,0 c 1.199,0 1.797,-0.597 1.797,-1.8" /><path
             id="path36"
             style="fill:#ffffff;fill-opacity:1;fill-rule:nonzero;stroke:none"
             d="m 572.754,130.551 c 13.836,0 20.762,8.605 20.762,25.812 0,17.125 -6.926,25.684 -20.762,25.684 -13.848,0 -20.774,-8.559 -20.774,-25.684 0,-17.207 6.926,-25.812 20.774,-25.812 z m 0,-6.238 c -8.731,0 -15.547,2.777 -20.469,8.343 -4.922,5.563 -7.383,13.461 -7.383,23.707 0,10.239 2.461,18.125 7.383,23.641 4.922,5.527 11.738,8.289 20.469,8.289 8.719,0 15.535,-2.762 20.457,-8.289 4.922,-5.516 7.383,-13.402 7.383,-23.641 0,-10.246 -2.461,-18.144 -7.383,-23.707 -4.922,-5.566 -11.738,-8.343 -20.457,-8.343" /><path
             id="path38"
             style="fill:#ffffff;fill-opacity:1;fill-rule:nonzero;stroke:none"
             d="m 645.488,188.293 c 5.918,0 10.399,-1.543 13.446,-4.625 3.039,-3.082 4.562,-7.621 4.562,-13.625 l 0,-42.129 c 0,-1.199 -0.605,-1.801 -1.797,-1.801 l -3.254,0 c -1.191,0 -1.797,0.602 -1.797,1.801 l 0,39.25 c 0,5.281 -0.996,9.082 -2.996,11.406 -2.004,2.321 -5.207,3.477 -9.601,3.477 -4.246,0 -8.281,-0.66 -12.129,-1.977 -3.836,-1.324 -7.598,-3.222 -11.277,-5.703 l 0,-46.453 c 0,-1.199 -0.606,-1.801 -1.809,-1.801 l -3.231,0 c -1.203,0 -1.808,0.602 -1.808,1.801 l 0,56.774 c 0,1.203 0.605,1.8 1.808,1.8 l 2.403,0 c 1.191,0 1.875,-0.597 2.031,-1.8 l 0.488,-5.161 c 3.836,2.801 7.918,4.961 12.235,6.485 4.328,1.519 8.566,2.281 12.726,2.281" /><path
             id="path40"
             style="fill:#ffffff;fill-opacity:1;fill-rule:nonzero;stroke:none"
             d="m 728.672,155.277 c -11.203,0 -16.809,-4.32 -16.809,-12.957 0,-7.523 3.965,-11.285 11.887,-11.285 3.035,0 6.316,0.598 9.844,1.801 3.523,1.195 7.078,2.961 10.683,5.277 l 0,15.008 c -5.441,1.442 -10.644,2.156 -15.605,2.156 z m 1.68,33.016 c 13.847,0 20.761,-5.965 20.761,-17.887 l 0,-42.492 c 0,-1.199 -0.597,-1.801 -1.797,-1.801 l -2.519,0 c -1.203,0 -1.848,0.602 -1.926,1.801 l -0.476,5.16 c -6.887,-5.519 -14.082,-8.285 -21.602,-8.285 -5.527,0 -9.902,1.582 -13.145,4.746 -3.242,3.16 -4.863,7.379 -4.863,12.66 0,5.84 1.981,10.446 5.938,13.805 3.965,3.359 9.422,5.039 16.386,5.039 2.567,0 5.36,-0.238 8.407,-0.719 3.039,-0.476 5.957,-1.16 8.761,-2.039 l 0,10.082 c 0,4.883 -1.164,8.387 -3.488,10.504 -2.312,2.121 -6.16,3.18 -11.523,3.18 -4.961,0 -10.196,-0.797 -15.723,-2.399 -0.879,-0.238 -1.582,-0.464 -2.098,-0.664 -0.519,-0.199 -0.937,-0.296 -1.261,-0.296 -0.957,0 -1.434,0.523 -1.434,1.562 l 0,1.918 c 0,1.203 0.516,1.996 1.563,2.402 3.035,1.203 6.296,2.121 9.773,2.758 3.488,0.641 6.906,0.965 10.266,0.965" /><path
             id="path42"
             style="fill:#ffffff;fill-opacity:1;fill-rule:nonzero;stroke:none"
             d="m 766.961,213.137 c 0,1.199 0.598,1.801 1.797,1.801 l 3.242,0 c 1.203,0 1.809,-0.602 1.809,-1.801 l 0,-76.582 c 0,-1.758 0.332,-3 1.015,-3.719 0.684,-0.723 1.903,-1.082 3.66,-1.082 0.481,0 1.028,0.039 1.621,0.121 0.598,0.078 1.094,0.117 1.504,0.117 1.114,0 1.68,-0.562 1.68,-1.679 l 0,-2.282 c 0,-0.961 -0.527,-1.562 -1.562,-1.801 -0.477,-0.156 -1.18,-0.277 -2.098,-0.355 -0.93,-0.078 -1.75,-0.121 -2.461,-0.121 -3.203,0 -5.703,0.941 -7.512,2.82 -1.797,1.875 -2.695,4.5 -2.695,7.864 l 0,76.699" /><path
             id="path44"
             style="fill:#ffffff;fill-opacity:1;fill-rule:nonzero;stroke:none"
             d="m 817.09,182.168 c -6.008,0 -10.742,-1.758 -14.231,-5.281 -3.476,-3.524 -5.574,-8.684 -6.296,-15.485 3.125,-0.8 6.218,-1.402 9.304,-1.8 3.078,-0.403 6.184,-0.598 9.297,-0.598 6.008,0 10.402,0.879 13.203,2.637 2.805,1.761 4.199,4.566 4.199,8.402 0,8.082 -5.156,12.125 -15.476,12.125 z m 15.242,-49.574 c 1.035,0.32 1.797,0.582 2.277,0.781 0.489,0.199 0.926,0.297 1.329,0.297 0.957,0 1.433,-0.52 1.433,-1.559 l 0,-1.679 c 0,-1.286 -0.437,-2.121 -1.316,-2.52 -5.762,-2.402 -11.887,-3.601 -18.371,-3.601 -9.2,0 -16.219,2.66 -21.063,7.984 -4.844,5.316 -7.258,13.098 -7.258,23.344 0,5.039 0.637,9.586 1.914,13.621 1.282,4.043 3.145,7.488 5.586,10.328 2.434,2.836 5.422,5 8.938,6.48 3.523,1.481 7.488,2.223 11.883,2.223 6.964,0 12.343,-1.602 16.144,-4.801 3.809,-3.203 5.703,-7.687 5.703,-13.449 0,-5.684 -2.023,-9.863 -6.054,-12.543 -4.043,-2.68 -10.305,-4.023 -18.789,-4.023 -3.047,0 -6.106,0.183 -9.18,0.543 -3.086,0.359 -6.145,0.98 -9.192,1.859 0,-8.637 1.829,-15.02 5.469,-19.141 3.633,-4.125 9.102,-6.187 16.379,-6.187 4.727,0 9.441,0.679 14.168,2.043" /><path
             id="path46"
             style="fill:#ffffff;fill-opacity:1;fill-rule:nonzero;stroke:none"
             d="m 872.52,152.758 -17.403,-25.324 c -0.644,-0.879 -1.484,-1.321 -2.519,-1.321 l -3.36,0 c -1.047,0 -1.562,0.442 -1.562,1.321 0,0.32 0.273,0.839 0.84,1.558 l 20.527,28.567 -18.73,26.171 c -0.481,0.719 -0.715,1.196 -0.715,1.438 0,0.883 0.519,1.32 1.554,1.32 l 3.719,0 c 1.047,0 1.887,-0.437 2.531,-1.32 l 15.723,-22.328 15.723,22.328 c 0.632,0.883 1.433,1.32 2.402,1.32 l 3.23,0 c 1.047,0 1.563,-0.437 1.563,-1.32 0,-0.32 -0.234,-0.836 -0.711,-1.559 l -18.488,-25.566 20.527,-29.051 c 0.481,-0.719 0.715,-1.238 0.715,-1.558 0,-0.879 -0.52,-1.321 -1.563,-1.321 l -3.71,0 c -0.969,0 -1.77,0.442 -2.403,1.321 l -17.89,25.324" /><path
             id="path48"
             style="fill:#ffffff;fill-opacity:1;fill-rule:nonzero;stroke:none"
             d="m 929.141,155.277 c -11.203,0 -16.809,-4.32 -16.809,-12.957 0,-7.523 3.965,-11.285 11.887,-11.285 3.035,0 6.316,0.598 9.844,1.801 3.523,1.195 7.078,2.961 10.683,5.277 l 0,15.008 c -5.441,1.442 -10.644,2.156 -15.605,2.156 z m 1.679,33.016 c 13.848,0 20.77,-5.965 20.77,-17.887 l 0,-42.492 c 0,-1.199 -0.606,-1.801 -1.805,-1.801 l -2.519,0 c -1.203,0 -1.836,0.602 -1.914,1.801 l -0.489,5.16 c -6.886,-5.519 -14.082,-8.285 -21.601,-8.285 -5.528,0 -9.903,1.582 -13.145,4.746 -3.242,3.16 -4.863,7.379 -4.863,12.66 0,5.84 1.98,10.446 5.937,13.805 3.965,3.359 9.422,5.039 16.387,5.039 2.567,0 5.36,-0.238 8.406,-0.719 3.039,-0.476 5.957,-1.16 8.762,-2.039 l 0,10.082 c 0,4.883 -1.164,8.387 -3.476,10.504 -2.325,2.121 -6.165,3.18 -11.536,3.18 -4.961,0 -10.195,-0.797 -15.722,-2.399 -0.879,-0.238 -1.571,-0.464 -2.098,-0.664 -0.519,-0.199 -0.937,-0.296 -1.262,-0.296 -0.957,0 -1.433,0.523 -1.433,1.562 l 0,1.918 c 0,1.203 0.515,1.996 1.562,2.402 3.035,1.203 6.297,2.121 9.774,2.758 3.488,0.641 6.906,0.965 10.265,0.965" /><path
             id="path50"
             style="fill:#ffffff;fill-opacity:1;fill-rule:nonzero;stroke:none"
             d="m 277.277,57.5547 0,31.1914 19.844,0 0,-4.4141 -14.355,0 0,-8.5547 11.925,0 0,-4.4062 -11.925,0 0,-9.4023 14.355,0 0,-4.4141 -19.844,0" /><path
             id="path52"
             style="fill:#ffffff;fill-opacity:1;fill-rule:nonzero;stroke:none"
             d="m 311.43,81.0898 0,-23.5351 -5.039,0 0,31.1914 5.988,0 14.168,-23.5352 0,23.5352 5.051,0 0,-31.1914 -5.989,0 -14.179,23.5351" /><path
             id="path54"
             style="fill:#ffffff;fill-opacity:1;fill-rule:nonzero;stroke:none"
             d="m 348.473,69.3906 9.898,0 -4.98,14.4024 -4.918,-14.4024 z m 13.765,-11.8359 -2.605,7.832 -12.473,0 -2.519,-7.832 -5.489,0 11.407,31.1914 5.937,0 11.231,-31.1914 -5.489,0" /><path
             id="path56"
             style="fill:#ffffff;fill-opacity:1;fill-rule:nonzero;stroke:none"
             d="m 380.863,71.4609 0,-9.8046 6.082,0 c 3.391,0 5.078,1.6093 5.078,4.8515 0,3.3008 -1.746,4.9531 -5.253,4.9531 l -5.907,0 z m 0,13.1836 0,-9.1797 4.578,0 c 3.254,0 4.875,1.543 4.875,4.6368 0,3.0273 -1.55,4.5429 -4.66,4.5429 l -4.793,0 z m -5.488,-27.0898 0,31.1914 10.664,0 c 2.969,0 5.359,-0.7617 7.156,-2.2773 1.797,-1.5118 2.696,-3.504 2.696,-5.9961 0,-1.5235 -0.348,-2.8399 -1.051,-3.9532 -0.703,-1.1054 -1.75,-1.9648 -3.125,-2.5586 1.914,-0.5781 3.379,-1.5156 4.383,-2.8242 1.004,-1.2969 1.504,-2.9179 1.504,-4.8437 0,-2.6641 -0.95,-4.793 -2.852,-6.375 -1.902,-1.5742 -4.484,-2.3633 -7.715,-2.3633 l -11.66,0" /><path
             id="path58"
             style="fill:#ffffff;fill-opacity:1;fill-rule:nonzero;stroke:none"
             d="m 406.879,57.5547 0,31.1914 5.488,0 0,-26.6914 14.356,0 0,-4.5 -19.844,0" /><path
             id="path60"
             style="fill:#ffffff;fill-opacity:1;fill-rule:nonzero;stroke:none"
             d="m 434.418,57.5547 0,31.1914 19.844,0 0,-4.4141 -14.356,0 0,-8.5547 11.922,0 0,-4.4062 -11.922,0 0,-9.4023 14.356,0 0,-4.4141 -19.844,0" /><path
             id="path62"
             style="fill:#ffffff;fill-opacity:1;fill-rule:nonzero;stroke:none"
             d="m 469.016,84.418 0,-22.5391 4.55,0 c 6.211,0 9.321,3.5938 9.321,10.8008 l 0,0.9883 c 0,7.1679 -3.11,10.75 -9.321,10.75 l -4.55,0 z m -5.489,-26.8633 0,31.1914 10.664,0 c 4.622,0 8.157,-1.3398 10.598,-4.0156 2.449,-2.6641 3.672,-6.5039 3.672,-11.5117 0,-5.0391 -1.238,-8.918 -3.711,-11.6133 -2.48,-2.7032 -6.008,-4.0508 -10.598,-4.0508 l -10.625,0" /></g></g></g></g></svg>