<?xml version="1.0" encoding="UTF-8" standalone="no"?>
<!DOCTYPE svg PUBLIC "-//W3C//DTD SVG 20010904//EN" "http://www.w3.org/TR/2001/REC-SVG-20010904/DTD/svg10.dtd">
<svg version="1.0" xmlns="http://www.w3.org/2000/svg" width="1016.000000pt" height="499.000000pt" viewBox="0 0 1016.000000 499.000000" preserveAspectRatio="xMidYMid meet">

<g transform="translate(0.000000,499.000000) scale(0.100000,-0.100000)" stroke="none" fill="rgba(255,255,255,0.5)">
<path d="M0 2495 l0 -2495 5080 0 5080 0 0 2495 0 2495 -5080 0 -5080 0 0 -2495z m4347 1034 c66 -24 133 -124 133 -197 0 -43 -22 -100 -52 -137 -89 -108 -262 -101 -342 13 -42 59 -48 151 -16 217 48 99 169 144 277 104z m3751 -16 c64 -36 96 -91 100 -172 4 -82 -23 -141 -87 -186 -57 -40 -157 -48 -218 -16 -137 69 -161 250 -47 350 74 65 166 74 252 24z m-4996 -564 c163 -35 295 -159 359 -339 23 -64 23 -70 27 -592 l3 -528 -175 0 -175 0 -3 463 c-4 442 -5 465 -26 527 -25 77 -68 132 -125 162 -60 31 -182 31 -253 -1 -59 -26 -123 -87 -154 -148 -47 -92 -50 -122 -50 -575 l0 -428 -180 0 -180 0 0 715 0 715 170 0 169 0 3 -117 3 -118 22 40 c38 71 144 166 220 196 97 39 240 50 345 28z m-1302 -744 l0 -715 -180 0 -180 0 0 715 0 715 180 0 180 0 0 -715z m3040 560 l0 -155 -200 0 -200 0 0 -560 0 -560 -180 0 -180 0 0 560 0 560 -200 0 -200 0 0 155 0 155 580 0 580 0 0 -155z m620 -295 c0 -294 4 -467 11 -502 30 -143 106 -215 234 -226 138 -11 247 54 312 185 l38 77 3 458 3 458 179 0 180 0 0 -715 0 -715 -170 0 -169 0 -3 113 -3 112 -18 -33 c-49 -89 -163 -177 -276 -213 -75 -24 -214 -28 -295 -10 -137 32 -252 125 -316 255 -66 134 -70 170 -70 722 l0 484 180 0 180 0 0 -450z m1690 -265 l0 -715 -180 0 -180 0 0 715 0 715 180 0 180 0 0 -715z m1420 560 l0 -155 -200 0 -200 0 0 -560 0 -560 -180 0 -180 0 0 560 0 560 -200 0 -200 0 0 155 0 155 580 0 580 0 0 -155z m91 -1101 c34 -17 63 -75 55 -109 -16 -64 -86 -100 -147 -75 -57 24 -77 105 -38 154 36 46 80 56 130 30z"/>
<path d="M8593 1662 c-27 -4 -73 -56 -73 -83 0 -58 60 -107 114 -93 56 14 85 93 51 141 -17 24 -60 40 -92 35z m54 -48 c3 -9 1 -24 -5 -34 -6 -10 -7 -22 -1 -31 11 -18 11 -29 1 -29 -5 0 -14 11 -20 25 -6 14 -16 25 -22 25 -5 0 -10 -11 -10 -25 0 -14 -4 -25 -10 -25 -5 0 -10 25 -10 55 l0 55 35 0 c24 0 38 -5 42 -16z"/>
<path d="M8590 1600 c0 -16 5 -21 23 -18 12 2 22 10 22 18 0 8 -10 16 -22 18 -18 3 -23 -2 -23 -18z"/>
</g>
</svg>